<?xml version="1.0" encoding="UTF-8"?>
<svg id="Layer_1" data-name="Layer 1" xmlns="http://www.w3.org/2000/svg" version="1.1" viewBox="0 0 239.5 45.5">
  <defs>
    <style>
      .cls-1 {
        fill: #fff;
      }

      .cls-1, .cls-2 {
        stroke: #231f20;
        stroke-miterlimit: 10;
      }

      .cls-2 {
        fill: #b02c91;
      }

      .cls-3 {
        fill: #231f20;
        stroke-width: 0px;
      }
    </style>
  </defs>
  <path class="cls-1" d="M91.5,1.11v43.27V1.11Z"/>
  <polygon class="cls-2" points="140.19 1.11 91.5 44.38 115.84 22.75 140.19 44.38 140.19 1.11"/>
  <polyline class="cls-1" points="115.84 1.11 115.84 22.75 115.84 44.38"/>
  <g>
    <path class="cls-3" d="M1.93,27.13H0c.02-.47.03-1.5.04-3.09,0-1.59.02-3.51.02-5.75,0-.91,0-1.97-.02-3.18s-.03-2.43-.04-3.67h1.93c-.02,1.2-.03,2.55-.04,4.05,0,1.5,0,2.81,0,3.9,0,2.25,0,3.98.02,5.2s.02,2.06.03,2.53h0ZM12.09,26.05l-1.35,1.29c-1.87-1.81-3.67-3.5-5.4-5.07s-2.73-2.47-2.98-2.7v-.05c.48-.48,1.52-1.55,3.11-3.2s3.18-3.34,4.76-5.06l1.32,1.18c-1.35,1.29-2.73,2.66-4.14,4.11-1.42,1.46-2.31,2.37-2.67,2.75v.03c.18.17.95.89,2.32,2.14,1.36,1.25,3.04,2.78,5.03,4.58h0Z"/>
    <path class="cls-3" d="M22.69,20.45c0,1.94,0,3.52-.01,4.73s-.01,1.88-.01,1.97c-.08,0-.44.04-1.09.09s-1.48.08-2.51.08c-.64,0-1.29-.06-1.93-.18s-1.21-.29-1.68-.5c-.62-.29-1.13-.68-1.52-1.18s-.58-1.1-.58-1.8c0-.74.23-1.38.69-1.93s1.09-.98,1.9-1.32c.51-.21,1.19-.4,2.03-.57s1.81-.29,2.9-.38c-.05-.61-.2-1.11-.46-1.5s-.64-.69-1.14-.89c-.34-.14-.73-.24-1.15-.3s-.91-.09-1.48-.09c-.35,0-.65,0-.9.02s-.58.04-1,.06l.19-1.56c.12,0,.35-.02.7-.04s.82-.03,1.42-.03c.92,0,1.74.1,2.47.29s1.32.5,1.8.93c.45.41.78.91,1.01,1.51s.34,1.46.34,2.6h.01ZM20.9,23.27v-1.01c0-.41,0-.88-.01-1.41-.34.02-.95.08-1.8.21s-1.58.29-2.17.52c-.44.16-.83.41-1.17.74s-.51.73-.51,1.22c0,.53.14.96.43,1.28s.68.57,1.18.74c.38.13.81.23,1.27.29s.96.09,1.47.09c.16,0,.35,0,.57-.01s.46-.02.71-.02v-2.63h.03Z"/>
    <path class="cls-3" d="M33.73,16.65c-.43.1-1.09.32-1.97.64s-1.91.77-3.06,1.31c0,.09,0,.48-.01,1.18s-.01,1.35-.01,1.95c0,.92,0,2.02.03,3.28s.03,1.97.03,2.11h-1.85c0-.13,0-.57.02-1.31s.02-2.01.02-3.81c0-.73,0-1.74-.01-3.05s-.02-2.54-.04-3.69h1.82v1.78h.01c.88-.49,1.75-.92,2.61-1.29.86-.37,1.55-.62,2.06-.75l.35,1.64h0Z"/>
    <path class="cls-3" d="M46.53,21.2c0,.91-.16,1.77-.49,2.6s-.79,1.54-1.4,2.12c-.52.49-1.09.87-1.72,1.12s-1.34.39-2.14.39c-.75,0-1.45-.13-2.11-.38s-1.24-.63-1.76-1.12c-.59-.57-1.05-1.27-1.38-2.11s-.49-1.72-.49-2.65.14-1.72.42-2.48.71-1.43,1.29-2.03c.52-.55,1.13-.97,1.83-1.26s1.43-.44,2.2-.44c.81,0,1.55.13,2.21.4s1.25.67,1.76,1.21c.59.62,1.04,1.31,1.32,2.08s.43,1.62.43,2.54h.03ZM44.65,21.28c0-.73-.12-1.45-.36-2.14s-.61-1.28-1.11-1.76c-.3-.3-.67-.53-1.08-.69s-.85-.24-1.31-.24c-.54,0-1.01.09-1.41.26s-.77.44-1.12.81c-.41.42-.74.96-.98,1.62s-.36,1.34-.36,2.04c0,.8.12,1.53.36,2.2s.63,1.24,1.17,1.73c.3.27.66.48,1.05.63s.82.22,1.27.22c.49,0,.95-.09,1.38-.26s.8-.42,1.12-.75c.45-.45.79-1,1.02-1.64s.35-1.31.35-2.02h.01Z"/>
    <path class="cls-3" d="M51.74,27.13h-1.85c0-.09.02-1.24.03-3.43s.02-4.01.02-5.46v-3.52c0-1.42-.02-3.01-.04-4.78h1.85c-.02,1.2-.03,2.6-.04,4.18s0,2.92,0,4c0,2.37,0,4.44.02,6.21s.02,2.7.02,2.79h0Z"/>
    <path class="cls-3" d="M58.25,13h-2.06v-2.02h2.06v2.02ZM58.14,27.13h-1.85c0-.12.02-.89.03-2.31s.02-2.58.02-3.5v-2.65c0-.96-.02-2.1-.04-3.39h1.85c-.02,1.12-.03,2.18-.04,3.16s-.02,1.85-.02,2.62c0,1.82,0,3.28.03,4.38s.03,1.67.03,1.7h0,0Z"/>
    <path class="cls-3" d="M72.27,27.13h-1.85c0-.22.02-.94.03-2.17s.02-1.98.02-2.27v-1.8c0-.79,0-1.37-.02-1.74-.02-.9-.2-1.54-.52-1.93s-.88-.59-1.66-.59c-.48,0-1.07.14-1.77.42s-1.41.64-2.13,1.08v3.7c0,.91,0,2,.03,3.28s.03,1.95.03,2.02h-1.85s0-.53.02-1.44.02-2.24.02-4.03v-2.88c0-1.1-.02-2.27-.04-3.52h1.83v1.37c1.09-.62,2.01-1.06,2.74-1.31s1.34-.37,1.82-.37c1,0,1.8.31,2.41.94s.91,1.49.91,2.58c0,.98,0,1.83-.02,2.55s-.02,1.29-.02,1.74c0,.71,0,1.6.03,2.67s.03,1.63.03,1.68l-.02.02h-.02Z"/>
    <path class="cls-3" d="M84.64,20.45v6.7c-.08,0-.44.04-1.09.09s-1.48.08-2.51.08c-.64,0-1.29-.06-1.93-.18s-1.21-.29-1.68-.5c-.62-.29-1.13-.68-1.52-1.18s-.58-1.1-.58-1.8c0-.74.23-1.38.69-1.93s1.09-.98,1.9-1.32c.51-.21,1.19-.4,2.03-.57s1.81-.29,2.9-.38c-.05-.61-.2-1.11-.46-1.5s-.64-.69-1.14-.89c-.34-.14-.73-.24-1.15-.3s-.91-.09-1.48-.09c-.35,0-.65,0-.9.02s-.58.04-1,.06l.19-1.56c.12,0,.35-.02.7-.04s.82-.03,1.42-.03c.92,0,1.74.1,2.47.29s1.32.5,1.8.93c.45.41.78.91,1.01,1.51s.34,1.46.34,2.6h-.01ZM82.84,23.27v-2.42c-.34.02-.95.08-1.8.21s-1.58.29-2.17.52c-.44.16-.83.41-1.17.74s-.51.73-.51,1.22c0,.53.14.96.43,1.28s.68.57,1.18.74c.38.13.81.23,1.27.29s.96.09,1.47.09c.16,0,.35,0,.57-.01s.46-.02.71-.02v-2.63h.03,0Z"/>
  </g>
  <g>
    <path class="cls-3" d="M168.52,11.79c-1.32,3.46-2.55,6.86-3.69,10.19s-1.73,5.07-1.79,5.22h-1.63c-.04-.15-.46-1.39-1.26-3.73s-1.86-5.25-3.17-8.74h-.02c-1.15,2.88-2.21,5.64-3.17,8.27s-1.48,4.03-1.54,4.2h-1.66c-.06-.23-.56-1.76-1.51-4.6s-2.2-6.39-3.77-10.66l1.92-.75c.03.11.49,1.49,1.37,4.13.88,2.64,1.89,5.61,3.03,8.9h.02c1.2-3.03,2.25-5.81,3.15-8.34.9-2.52,1.36-3.85,1.4-3.96h1.82c.03.13.51,1.56,1.42,4.29.92,2.73,1.85,5.4,2.8,8.01l.02-.02c1.25-3.41,2.31-6.4,3.17-8.97.86-2.57,1.31-3.92,1.34-4.04l1.74.6s0,0,0,0Z"/>
    <path class="cls-3" d="M181.63,15.75c-1.52,3.36-3.13,6.93-4.81,10.71s-2.58,5.79-2.69,6.03l-1.62-.6,2.42-5.03c-.06-.16-.55-1.3-1.47-3.42s-2.04-4.66-3.35-7.62l1.75-.76c.86,2.17,1.73,4.32,2.62,6.44s1.36,3.24,1.41,3.35h.02c.05-.08.49-1.12,1.34-3.12s1.77-4.21,2.77-6.62l1.61.64h0Z"/>
    <path class="cls-3" d="M190.9,23.7c0,.58-.14,1.09-.42,1.55-.28.45-.65.82-1.1,1.1-.48.3-1.04.52-1.7.67s-1.38.23-2.17.23c-.38,0-.78-.02-1.19-.05-.41-.04-.64-.06-.7-.06l-.07-1.54c.07,0,.34.03.81.06s.94.05,1.41.05c.27,0,.62-.02,1.05-.07s.79-.13,1.07-.26c.39-.17.68-.38.87-.63s.28-.55.28-.9c0-.32-.08-.58-.25-.78s-.39-.39-.68-.58c-.31-.21-.74-.44-1.28-.67s-1-.47-1.37-.69c-.52-.32-.92-.7-1.2-1.14s-.42-.95-.42-1.52.16-1.1.48-1.56.74-.83,1.27-1.11c.46-.25.97-.42,1.53-.5s1.1-.12,1.63-.12c.48,0,.87,0,1.17.02s.48.02.53.02l.13,1.56s-.3-.02-.72-.05-.89-.05-1.4-.05c-.36,0-.7.03-1.03.09s-.6.15-.83.27c-.34.17-.58.38-.72.62s-.22.48-.22.7c0,.31.1.58.31.81.2.23.44.42.72.57.32.19.76.41,1.32.67s.96.46,1.21.62c.55.34.96.73,1.25,1.15s.43.92.43,1.5v.02h0Z"/>
    <path class="cls-3" d="M204.62,21.2c0,.91-.16,1.77-.49,2.6s-.79,1.54-1.4,2.12c-.52.49-1.09.87-1.72,1.12s-1.34.39-2.14.39c-.75,0-1.45-.13-2.11-.38s-1.24-.63-1.76-1.12c-.59-.57-1.05-1.27-1.38-2.11s-.49-1.72-.49-2.65.14-1.72.42-2.48.71-1.43,1.29-2.03c.52-.55,1.13-.97,1.83-1.26s1.43-.44,2.2-.44c.81,0,1.55.13,2.21.4s1.25.67,1.76,1.21c.59.62,1.04,1.31,1.32,2.08s.43,1.62.43,2.54h.03ZM202.75,21.28c0-.73-.12-1.45-.36-2.14s-.61-1.28-1.11-1.76c-.3-.3-.67-.53-1.08-.69s-.85-.24-1.31-.24c-.54,0-1.01.09-1.41.26s-.77.44-1.12.81c-.41.42-.74.96-.98,1.62s-.36,1.34-.36,2.04c0,.8.12,1.53.36,2.2s.63,1.24,1.17,1.73c.3.27.66.48,1.05.63s.82.22,1.27.22c.49,0,.95-.09,1.38-.26s.8-.42,1.12-.75c.45-.45.79-1,1.02-1.64s.35-1.31.35-2.02h0Z"/>
    <path class="cls-3" d="M215.67,25.61l-.14,1.57h-.64c-1.01,0-1.95-.1-2.82-.29s-1.66-.47-2.36-.85c-.95-.52-1.68-1.2-2.21-2.05s-.8-1.8-.8-2.85c0-.94.24-1.8.73-2.58s1.12-1.43,1.9-1.93c.7-.45,1.54-.8,2.53-1.04s1.99-.36,3.04-.36h.48l.09,1.57h-.36c-.87,0-1.61.05-2.22.16s-1.21.28-1.79.52c-.77.31-1.39.8-1.84,1.48s-.68,1.39-.68,2.16c0,.91.21,1.68.64,2.3s.99,1.1,1.69,1.44c.55.27,1.16.46,1.85.57s1.41.18,2.18.18h.74,0,0Z"/>
    <path class="cls-3" d="M220.61,27.13h-1.85c0-.14.02-1.2.03-3.16s.02-3.98.02-6.05v-3.34c0-1.34-.02-2.89-.04-4.63h1.85c-.02,1.38-.04,2.99-.04,4.82v3.26c0,.8,0,2.49.02,5.06s.02,3.92.02,4.05h-.01ZM229,26.89l-1.12,1.02c-1.73-1.76-3.27-3.29-4.62-4.59-1.36-1.3-2.1-2.02-2.24-2.16v-.02c.19-.17,1.01-1,2.46-2.49s2.63-2.71,3.53-3.66l1.13,1.17c-.93.9-1.9,1.85-2.92,2.84s-1.66,1.62-1.92,1.87h0c2.29,2.42,4.19,4.42,5.7,6.02h0Z"/>
    <path class="cls-3" d="M239.5,20.45c0,1.94,0,3.52,0,4.73s0,1.88,0,1.97c-.08,0-.44.04-1.09.09s-1.48.08-2.51.08c-.64,0-1.29-.06-1.93-.18s-1.21-.29-1.68-.5c-.62-.29-1.13-.68-1.52-1.18s-.58-1.1-.58-1.8c0-.74.23-1.38.69-1.93s1.09-.98,1.9-1.32c.51-.21,1.19-.4,2.03-.57s1.81-.29,2.9-.38c-.05-.61-.2-1.11-.46-1.5s-.64-.69-1.14-.89c-.34-.14-.73-.24-1.15-.3s-.91-.09-1.48-.09c-.35,0-.65,0-.9.02s-.58.04-1,.06l.19-1.56c.12,0,.35-.02.7-.04s.82-.03,1.42-.03c.92,0,1.74.1,2.47.29s1.32.5,1.8.93c.45.41.78.91,1.01,1.51s.34,1.46.34,2.6h0ZM237.7,23.27v-1.01c0-.41,0-.88,0-1.41-.34.02-.95.08-1.8.21s-1.58.29-2.17.52c-.44.16-.83.41-1.17.74s-.51.73-.51,1.22c0,.53.14.96.43,1.28s.68.57,1.18.74c.38.13.81.23,1.27.29s.96.09,1.47.09c.16,0,.35,0,.57-.01s.46-.02.71-.02v-2.63h.03,0Z"/>
  </g>
</svg>